<svg width="30" height="31" viewBox="0 0 30 31" fill="none" xmlns="http://www.w3.org/2000/svg">
<mask id="path-1-inside-1_82_59" fill="white">
<path fill-rule="evenodd" clip-rule="evenodd" d="M15.1196 25.1196C14.9155 25.3238 14.5845 25.3238 14.3804 25.1196L9.1531 19.8924C8.94897 19.6882 8.94897 19.3572 9.1531 19.1531C9.35724 18.949 9.68822 18.949 9.89235 19.1531L14.75 24.0107L19.6077 19.1531C19.8118 18.949 20.1427 18.949 20.3469 19.1531C20.551 19.3572 20.551 19.6882 20.3469 19.8924L15.1196 25.1196Z"/>
</mask>
<path fill-rule="evenodd" clip-rule="evenodd" d="M15.1196 25.1196C14.9155 25.3238 14.5845 25.3238 14.3804 25.1196L9.1531 19.8924C8.94897 19.6882 8.94897 19.3572 9.1531 19.1531C9.35724 18.949 9.68822 18.949 9.89235 19.1531L14.75 24.0107L19.6077 19.1531C19.8118 18.949 20.1427 18.949 20.3469 19.1531C20.551 19.3572 20.551 19.6882 20.3469 19.8924L15.1196 25.1196Z" fill="#1C64F2"/>
<path d="M15.1196 25.1196L13.7054 23.7054L13.7054 23.7054L15.1196 25.1196ZM14.3804 25.1196L15.7946 23.7054L15.7946 23.7054L14.3804 25.1196ZM9.1531 19.8924L7.73889 21.3066L7.73889 21.3066L9.1531 19.8924ZM9.89235 19.1531L8.47814 20.5673L8.47814 20.5673L9.89235 19.1531ZM14.75 24.0107L13.3358 25.4249L14.75 26.8391L16.1642 25.425L14.75 24.0107ZM19.6077 19.1531L18.1935 17.7389L18.1935 17.7389L19.6077 19.1531ZM20.3469 19.8924L18.9327 18.4781L18.9327 18.4781L20.3469 19.8924ZM13.7054 23.7054C14.2823 23.1285 15.2177 23.1285 15.7946 23.7054L12.9662 26.5338C13.9514 27.519 15.5486 27.519 16.5338 26.5338L13.7054 23.7054ZM15.7946 23.7054L10.5673 18.4781L7.73889 21.3066L12.9662 26.5338L15.7946 23.7054ZM10.5673 18.4781C11.1442 19.0551 11.1442 19.9904 10.5673 20.5673L7.73889 17.7389C6.7537 18.7241 6.7537 20.3214 7.73889 21.3066L10.5673 18.4781ZM10.5673 20.5673C9.9904 21.1442 9.05505 21.1442 8.47814 20.5673L11.3066 17.7389C10.3214 16.7537 8.72407 16.7537 7.73889 17.7389L10.5673 20.5673ZM8.47814 20.5673L13.3358 25.4249L16.1642 22.5965L11.3066 17.7389L8.47814 20.5673ZM16.1642 25.425L21.0219 20.5673L18.1935 17.7389L13.3358 22.5965L16.1642 25.425ZM21.0219 20.5673C20.445 21.1442 19.5096 21.1442 18.9327 20.5673L21.7611 17.7389C20.7759 16.7537 19.1787 16.7537 18.1935 17.7389L21.0219 20.5673ZM18.9327 20.5673C18.3558 19.9904 18.3558 19.055 18.9327 18.4781L21.7611 21.3066C22.7463 20.3214 22.7463 18.7241 21.7611 17.7389L18.9327 20.5673ZM18.9327 18.4781L13.7054 23.7054L16.5338 26.5338L21.7611 21.3066L18.9327 18.4781Z" fill="#1C64F2" mask="url(#path-1-inside-1_82_59)"/>
<mask id="path-3-inside-2_82_59" fill="white">
<path fill-rule="evenodd" clip-rule="evenodd" d="M15.1196 30.1196C14.9155 30.3238 14.5845 30.3238 14.3804 30.1196L9.1531 24.8924C8.94897 24.6882 8.94897 24.3572 9.1531 24.1531C9.35724 23.949 9.68822 23.949 9.89235 24.1531L14.75 29.0107L19.6077 24.1531C19.8118 23.949 20.1427 23.949 20.3469 24.1531C20.551 24.3572 20.551 24.6882 20.3469 24.8924L15.1196 30.1196Z"/>
</mask>
<path fill-rule="evenodd" clip-rule="evenodd" d="M15.1196 30.1196C14.9155 30.3238 14.5845 30.3238 14.3804 30.1196L9.1531 24.8924C8.94897 24.6882 8.94897 24.3572 9.1531 24.1531C9.35724 23.949 9.68822 23.949 9.89235 24.1531L14.75 29.0107L19.6077 24.1531C19.8118 23.949 20.1427 23.949 20.3469 24.1531C20.551 24.3572 20.551 24.6882 20.3469 24.8924L15.1196 30.1196Z" fill="#1C64F2"/>
<path d="M15.1196 30.1196L13.7054 28.7054L13.7054 28.7054L15.1196 30.1196ZM14.3804 30.1196L15.7946 28.7054L15.7946 28.7054L14.3804 30.1196ZM9.1531 24.8924L7.73889 26.3066L7.73889 26.3066L9.1531 24.8924ZM9.89235 24.1531L8.47814 25.5673L8.47814 25.5673L9.89235 24.1531ZM14.75 29.0107L13.3358 30.4249L14.75 31.8391L16.1642 30.425L14.75 29.0107ZM19.6077 24.1531L18.1935 22.7389L18.1935 22.7389L19.6077 24.1531ZM20.3469 24.8924L18.9327 23.4781L18.9327 23.4781L20.3469 24.8924ZM13.7054 28.7054C14.2823 28.1285 15.2177 28.1285 15.7946 28.7054L12.9662 31.5338C13.9514 32.519 15.5486 32.519 16.5338 31.5338L13.7054 28.7054ZM15.7946 28.7054L10.5673 23.4781L7.73889 26.3066L12.9662 31.5338L15.7946 28.7054ZM10.5673 23.4781C11.1442 24.0551 11.1442 24.9904 10.5673 25.5673L7.73889 22.7389C6.7537 23.7241 6.7537 25.3214 7.73889 26.3066L10.5673 23.4781ZM10.5673 25.5673C9.9904 26.1442 9.05505 26.1442 8.47814 25.5673L11.3066 22.7389C10.3214 21.7537 8.72407 21.7537 7.73889 22.7389L10.5673 25.5673ZM8.47814 25.5673L13.3358 30.4249L16.1642 27.5965L11.3066 22.7389L8.47814 25.5673ZM16.1642 30.425L21.0219 25.5673L18.1935 22.7389L13.3358 27.5965L16.1642 30.425ZM21.0219 25.5673C20.445 26.1442 19.5096 26.1442 18.9327 25.5673L21.7611 22.7389C20.7759 21.7537 19.1787 21.7537 18.1935 22.7389L21.0219 25.5673ZM18.9327 25.5673C18.3558 24.9904 18.3558 24.055 18.9327 23.4781L21.7611 26.3066C22.7463 25.3214 22.7463 23.7241 21.7611 22.7389L18.9327 25.5673ZM18.9327 23.4781L13.7054 28.7054L16.5338 31.5338L21.7611 26.3066L18.9327 23.4781Z" fill="#1C64F2" mask="url(#path-3-inside-2_82_59)"/>
<rect width="30" height="15.0473" rx="3" fill="#1C64F2"/>
</svg>
