<svg width="45" height="16" viewBox="0 0 45 16" fill="none" xmlns="http://www.w3.org/2000/svg">
<mask id="path-1-inside-1_82_62" fill="white">
<path fill-rule="evenodd" clip-rule="evenodd" d="M5.26676 8.11961C5.06261 7.91547 5.06261 7.58455 5.26676 7.3804L10.494 2.1531C10.6982 1.94897 11.0291 1.94897 11.2333 2.1531C11.4374 2.35724 11.4374 2.68822 11.2333 2.89235L6.37564 7.75001L11.2333 12.6077C11.4374 12.8118 11.4374 13.1427 11.2333 13.3469C11.0291 13.551 10.6982 13.551 10.494 13.3469L5.26676 8.11961Z"/>
</mask>
<path fill-rule="evenodd" clip-rule="evenodd" d="M5.26676 8.11961C5.06261 7.91547 5.06261 7.58455 5.26676 7.3804L10.494 2.1531C10.6982 1.94897 11.0291 1.94897 11.2333 2.1531C11.4374 2.35724 11.4374 2.68822 11.2333 2.89235L6.37564 7.75001L11.2333 12.6077C11.4374 12.8118 11.4374 13.1427 11.2333 13.3469C11.0291 13.551 10.6982 13.551 10.494 13.3469L5.26676 8.11961Z" fill="#1C64F2"/>
<path d="M5.26676 8.11961L6.68097 6.7054L6.68097 6.7054L5.26676 8.11961ZM5.26676 7.3804L6.68097 8.79462L6.68097 8.79461L5.26676 7.3804ZM10.494 2.1531L9.0798 0.738888L9.0798 0.738894L10.494 2.1531ZM11.2333 2.89235L9.81905 1.47814L9.81905 1.47814L11.2333 2.89235ZM6.37564 7.75001L4.96142 6.3358L3.54722 7.75L4.96142 9.16421L6.37564 7.75001ZM11.2333 12.6077L12.6475 11.1935L12.6475 11.1935L11.2333 12.6077ZM10.494 13.3469L11.9083 11.9327L11.9082 11.9327L10.494 13.3469ZM6.68097 6.7054C7.25788 7.2823 7.25788 8.21771 6.68097 8.79462L3.85254 5.96619C2.86735 6.95138 2.86735 8.54863 3.85254 9.53382L6.68097 6.7054ZM6.68097 8.79461L11.9082 3.56731L9.0798 0.738894L3.85254 5.9662L6.68097 8.79461ZM11.9082 3.56732C11.3313 4.14423 10.396 4.14423 9.81905 3.56732L12.6475 0.738888C11.6623 -0.246296 10.065 -0.246296 9.0798 0.738888L11.9082 3.56732ZM9.81905 3.56732C9.24214 2.9904 9.24214 2.05505 9.81905 1.47814L12.6475 4.30656C13.6327 3.32138 13.6327 1.72407 12.6475 0.738888L9.81905 3.56732ZM9.81905 1.47814L4.96142 6.3358L7.78985 9.16422L12.6475 4.30656L9.81905 1.47814ZM4.96142 9.16421L9.81905 14.0219L12.6475 11.1935L7.78986 6.3358L4.96142 9.16421ZM9.81903 14.0219C9.24215 13.445 9.24215 12.5096 9.81903 11.9327L12.6475 14.7611C13.6327 13.7759 13.6327 12.1787 12.6475 11.1935L9.81903 14.0219ZM9.81903 11.9327C10.3959 11.3558 11.3313 11.3558 11.9083 11.9327L9.07978 14.7611C10.065 15.7463 11.6623 15.7463 12.6475 14.7611L9.81903 11.9327ZM11.9082 11.9327L6.68097 6.7054L3.85254 9.53382L9.0798 14.7611L11.9082 11.9327Z" fill="#1C64F2" mask="url(#path-1-inside-1_82_62)"/>
<mask id="path-3-inside-2_82_62" fill="white">
<path fill-rule="evenodd" clip-rule="evenodd" d="M0.266756 8.11961C0.062613 7.91547 0.062613 7.58455 0.266756 7.3804L5.49402 2.1531C5.69815 1.94897 6.02913 1.94897 6.23327 2.1531C6.4374 2.35724 6.4374 2.68822 6.23327 2.89235L1.37564 7.75001L6.23327 12.6077C6.4374 12.8118 6.4374 13.1427 6.23327 13.3469C6.02913 13.551 5.69815 13.551 5.49402 13.3469L0.266756 8.11961Z"/>
</mask>
<path fill-rule="evenodd" clip-rule="evenodd" d="M0.266756 8.11961C0.062613 7.91547 0.062613 7.58455 0.266756 7.3804L5.49402 2.1531C5.69815 1.94897 6.02913 1.94897 6.23327 2.1531C6.4374 2.35724 6.4374 2.68822 6.23327 2.89235L1.37564 7.75001L6.23327 12.6077C6.4374 12.8118 6.4374 13.1427 6.23327 13.3469C6.02913 13.551 5.69815 13.551 5.49402 13.3469L0.266756 8.11961Z" fill="#1C64F2"/>
<path d="M0.266756 8.11961L1.68097 6.7054L1.68097 6.7054L0.266756 8.11961ZM0.266756 7.3804L1.68097 8.79462L1.68097 8.79461L0.266756 7.3804ZM5.49402 2.1531L4.0798 0.738888L4.0798 0.738894L5.49402 2.1531ZM6.23327 2.89235L4.81905 1.47814L4.81905 1.47814L6.23327 2.89235ZM1.37564 7.75001L-0.0385802 6.3358L-1.45278 7.75L-0.0385833 9.16421L1.37564 7.75001ZM6.23327 12.6077L7.6475 11.1935L7.64749 11.1935L6.23327 12.6077ZM5.49402 13.3469L6.90825 11.9327L6.90823 11.9327L5.49402 13.3469ZM1.68097 6.7054C2.25788 7.2823 2.25788 8.21771 1.68097 8.79462L-1.14746 5.96619C-2.13265 6.95138 -2.13265 8.54863 -1.14746 9.53382L1.68097 6.7054ZM1.68097 8.79461L6.90824 3.56731L4.0798 0.738894L-1.14746 5.9662L1.68097 8.79461ZM6.90823 3.56732C6.33132 4.14423 5.39597 4.14423 4.81905 3.56732L7.64748 0.738888C6.6623 -0.246296 5.06499 -0.246296 4.0798 0.738888L6.90823 3.56732ZM4.81905 3.56732C4.24214 2.9904 4.24214 2.05505 4.81905 1.47814L7.64748 4.30656C8.63266 3.32138 8.63266 1.72407 7.64748 0.738888L4.81905 3.56732ZM4.81905 1.47814L-0.0385802 6.3358L2.78985 9.16422L7.64748 4.30656L4.81905 1.47814ZM-0.0385833 9.16421L4.81905 14.0219L7.64749 11.1935L2.78986 6.3358L-0.0385833 9.16421ZM4.81903 14.0219C4.24215 13.445 4.24215 12.5096 4.81903 11.9327L7.6475 14.7611C8.63266 13.7759 8.63266 12.1787 7.6475 11.1935L4.81903 14.0219ZM4.81903 11.9327C5.39595 11.3558 6.33134 11.3558 6.90825 11.9327L4.07978 14.7611C5.06497 15.7463 6.66231 15.7463 7.6475 14.7611L4.81903 11.9327ZM6.90823 11.9327L1.68097 6.7054L-1.14746 9.53382L4.0798 14.7611L6.90823 11.9327Z" fill="#1C64F2" mask="url(#path-3-inside-2_82_62)"/>
<rect x="15" width="30" height="15.0473" rx="3" fill="#1C64F2"/>
</svg>
