<svg width="223" height="236" viewBox="0 0 223 236" fill="none" xmlns="http://www.w3.org/2000/svg">
<ellipse cx="13.5519" cy="193.253" rx="10.0392" ry="10.5412" fill="white"/>
<circle cx="13.5519" cy="225.88" r="10.0392" fill="white"/>
<circle cx="207.312" cy="150.589" r="15.0588" fill="white"/>
<line x1="48.1621" y1="193.28" x2="215.868" y2="193.28" stroke="white" stroke-width="13" stroke-linecap="round"/>
<line x1="48.1621" y1="226.404" x2="215.868" y2="226.404" stroke="white" stroke-width="13" stroke-linecap="round"/>
<path d="M170.565 67.8005C169.479 69.7908 168.378 71.6655 167.026 73.3682C166.423 74.1274 166.449 74.7133 166.952 75.5246C169.957 80.3687 173.097 85.144 175.46 90.3502C177.116 93.9974 178.576 97.7315 178.514 101.84C178.493 103.239 178.209 104.624 178.236 106.037C178.272 107.981 178.795 109.729 180.075 111.214C181.219 112.54 181.843 114.112 182.249 115.781C182.637 117.377 181.874 118.318 180.202 118.365C177.099 118.453 173.766 116.05 172.806 113.033C172.258 111.31 172.025 109.52 172.117 107.74C172.476 100.845 169.464 95.7041 164.052 91.7344C162.715 90.7533 161.408 89.7255 160.143 88.653C159.522 88.1265 159.122 88.1495 158.541 88.7167C156.094 91.1037 154.547 93.9545 153.754 97.2769C151.74 105.712 147.667 112.863 140.465 117.955C134.641 122.073 128.077 124.284 121.04 125.136C118.81 125.406 118.815 125.317 118.787 127.552C118.689 135.257 118.918 142.958 119.026 150.661C119.043 151.904 119.545 152.647 120.697 153.061C126.93 155.298 133.308 156.443 139.966 156.002C142.69 155.822 145.374 155.406 148.064 155.041C153.238 154.338 157.498 156.222 161.337 159.402C162.638 160.48 162.286 161.848 160.581 162.341C158.36 162.983 156.045 163.117 153.75 163.078C148.602 162.992 143.456 162.801 138.309 162.655C129.249 162.396 120.189 162.139 111.128 161.881C110.873 161.873 110.618 161.854 110.363 161.852C107.35 161.827 107.108 161.684 106.627 158.757C105.935 154.543 106.576 150.453 107.992 146.461C110.262 140.062 109.164 133.993 106.22 128.094C105.701 127.056 104.943 126.607 103.777 126.639C99.5653 126.752 95.3529 126.834 91.1403 126.884C90.2836 126.895 89.9556 127.288 89.759 128.049C89.0363 130.846 88.5978 133.717 87.5291 136.424C85.401 141.815 82.9856 147.072 80.0437 152.068C76.7062 157.735 71.6625 161.17 65.3378 162.654C59.9055 163.93 54.3447 164.348 48.7855 164.772C41.1769 165.354 33.5627 165.303 25.9478 165.221C17.0667 165.221 23.0902 165.221 13.5529 165.221L6.02353 165.221V165.221C5.18796 165.141 5.16293 163.931 5.99447 163.816L14.5569 162.635C16.0628 162.635 19.4842 161.913 23.0902 161.708C26.102 161.536 30.1177 161.458 35.1373 161.206C38.651 161.206 40.1569 160.703 43.6706 160.202C52.5819 158.221 50.2628 158.682 59.1044 156.358C59.349 156.294 59.5971 156.209 59.8283 156.107C64.4842 154.041 68.5062 151.191 70.7056 146.365C72.0915 143.324 72.5784 140.016 73.1663 136.753C74.4442 129.659 74.733 122.49 75.0667 115.301C75.6303 103.157 78.5224 91.5888 84.9659 81.108C89.8118 73.2256 96.5669 67.5077 104.927 63.6089C111.676 60.4618 118.723 58.7765 126.192 59.1582C128.011 59.2512 129.83 59.5383 131.625 59.8678C135.078 60.5014 138.353 59.7108 141.489 58.4978C149.204 55.5129 154.859 50.2211 158.489 42.761C159.481 40.7236 159.688 38.6434 159.399 36.4336C158.929 32.835 158.796 29.2386 159.75 25.6762C160.017 24.6809 160.355 23.7198 160.868 22.8359C161.26 22.1612 161.125 21.7001 160.597 21.158C155.781 16.2153 153.742 10.219 153.939 3.39234C153.949 3.05329 153.974 2.71003 154.039 2.37797C154.502 0.0115852 156.599 -0.749395 158.429 0.830523C160.016 2.20125 161.204 3.9393 162.507 5.56358C164.797 8.4181 167.03 11.3182 169.282 14.2033V14.2033C169.572 14.5741 170.082 14.8 170.379 14.4353C170.596 14.1695 170.666 13.8607 170.78 13.5874C172.549 9.32595 175.362 6.05753 179.665 4.19075C180.178 3.96799 180.689 3.64467 181.2 4.11458C181.74 4.61009 181.236 5.04436 181.042 5.48068C179.966 7.91078 178.239 9.94144 176.899 12.2107C176.357 13.1302 175.864 14.0698 175.569 15.1009C175.276 16.1281 175.554 16.8954 176.499 17.4878C177.831 18.3229 179.115 19.237 180.404 20.1404C181.175 20.6812 181.965 21.1425 182.888 21.4053C184.231 21.7877 185.152 22.6481 185.212 24.1134C185.327 26.9375 186.797 28.4164 189.533 28.928C191.619 29.3182 193.666 29.9207 195.725 30.4489C197.926 31.0133 198.352 31.7565 197.69 33.9637C197.208 35.5709 197.146 37.3798 195.705 38.5641C193.153 40.6618 190.361 42.0028 186.915 41.4005C185.368 41.1301 183.8 40.925 182.234 40.8297C179.266 40.6493 177.201 42.1149 176.262 44.9704C175.459 47.4134 175.237 49.9629 175.018 52.4996C174.553 57.8701 173.082 62.9354 170.565 67.8005Z" fill="white"/>
<path d="M135.17 153.423C131.049 153.226 127.243 152.27 123.631 150.52C122.585 150.013 121.877 149.327 121.97 148.071C122.33 143.182 121.846 138.291 122.017 133.402C122.077 131.701 122.168 130.001 122.188 128.3C122.201 127.213 122.739 126.504 123.677 126.138C124.583 125.785 125.551 125.593 126.482 125.299C127.296 125.042 127.61 125.409 127.599 126.159C127.583 127.265 127.5 128.37 127.497 129.475C127.481 134.839 127.498 140.203 127.467 145.566C127.46 146.845 127.964 147.625 129.189 148.06C135.073 150.146 141.11 150.784 147.294 150.029C150.714 149.611 154.121 149.096 157.581 149.102C162.035 149.109 165.734 150.945 169.013 153.786C169.687 154.371 170.503 155.207 170.18 156.036C169.823 156.95 168.649 156.947 167.7 156.902C165.981 156.821 164.325 156.448 162.791 155.651C156.528 152.393 149.888 151.928 143.039 152.941C140.47 153.32 137.891 153.596 135.17 153.423Z" fill="white"/>
<path d="M165.547 97.9549C165.834 100.383 166.082 102.704 165.983 105.044C165.913 106.691 166.54 108.017 167.802 109.06C169.794 110.708 170.319 112.814 169.682 115.25C169.248 116.911 168.101 117.436 166.572 116.634C163.292 114.912 161.506 112.162 161.299 108.474C161.046 103.958 159.635 99.9081 156.711 96.4312C156.014 95.6024 155.931 94.76 156.421 93.8468C156.903 92.9488 157.41 92.0629 157.943 91.1941C158.554 90.1978 159.433 90.1935 160.391 90.6221C163.52 92.0215 165.078 94.5373 165.547 97.9549Z" fill="white"/>
</svg>
