<svg width="794" height="648" viewBox="0 0 794 648" fill="none" xmlns="http://www.w3.org/2000/svg">
<path d="M685.964 265.844C681.712 273.635 677.402 280.974 672.109 287.639C669.749 290.611 669.848 292.904 671.818 296.08C683.583 315.042 695.872 333.735 705.125 354.115C711.607 368.392 717.322 383.009 717.08 399.091C716.997 404.569 715.885 409.991 715.988 415.52C716.131 423.133 718.177 429.971 723.191 435.785C727.667 440.975 730.11 447.13 731.699 453.663C733.218 459.912 730.23 463.594 723.685 463.78C711.538 464.125 698.492 454.715 694.734 442.907C692.587 436.161 691.676 429.154 692.039 422.186C693.443 395.199 681.651 375.073 660.469 359.533C655.234 355.693 650.118 351.669 645.167 347.471C642.736 345.41 641.169 345.5 638.893 347.721C629.316 357.064 623.258 368.224 620.154 381.23C612.273 414.248 596.327 442.241 568.135 462.174C545.339 478.292 519.641 486.948 492.097 490.283C483.366 491.34 483.388 490.992 483.277 499.74C482.894 529.901 483.79 560.048 484.212 590.2C484.28 595.068 486.246 597.976 490.754 599.594C515.152 608.352 540.121 612.834 566.184 611.11C576.845 610.404 587.354 608.776 597.881 607.346C618.134 604.595 634.81 611.968 649.84 624.419C654.931 628.637 653.552 633.995 646.878 635.923C638.185 638.435 629.125 638.959 620.14 638.809C599.988 638.472 579.844 637.724 559.696 637.15C524.23 636.138 488.764 635.131 453.298 634.121C452.299 634.092 451.3 634.015 450.301 634.007C438.507 633.91 437.56 633.351 435.678 621.894C432.969 605.398 435.476 589.387 441.021 573.758C449.907 548.712 445.61 524.955 434.083 501.862C432.054 497.799 429.085 496.044 424.52 496.167C408.035 496.611 391.545 496.932 375.055 497.128C371.701 497.168 370.418 498.71 369.648 501.689C366.819 512.636 365.102 523.872 360.919 534.47C352.588 555.575 343.133 576.153 331.618 595.707C318.553 617.892 298.81 631.337 274.051 637.149C252.787 642.141 231.019 643.777 209.257 645.44C179.474 647.717 149.668 647.518 119.86 647.197C83.18 646.801 46.7325 643.39 10.4983 637.695C7.54827 637.231 4.59641 636.774 1.66139 636.228C1.29379 636.159 1.02458 635.562 0.772217 635.28C0.85386 634.066 1.64346 633.809 2.49353 633.732C16.5827 632.471 30.6528 630.865 44.7684 630.062C65.0572 628.907 85.3833 628.352 105.71 628.979C120.52 629.436 135.332 630.81 150.125 630.599C184.772 630.104 218.903 626.055 251.122 612.116C269.923 603.982 286.24 592.745 295.064 573.385C300.489 561.482 302.395 548.531 304.696 535.757C309.698 507.989 310.829 479.927 312.135 451.786C314.341 404.248 325.663 358.964 350.885 317.936C369.855 287.081 396.297 264.698 429.024 249.436C455.44 237.117 483.026 230.52 512.263 232.014C519.384 232.378 526.506 233.502 533.533 234.792C547.047 237.272 559.87 234.177 572.143 229.429C602.344 217.745 624.479 197.03 638.691 167.827C642.572 159.852 643.383 151.709 642.253 143.059C640.413 128.972 639.893 114.894 643.627 100.949C644.671 97.0531 645.995 93.2909 648.004 89.8305C649.537 87.1897 649.01 85.3845 646.942 83.2627C628.091 63.9145 620.11 40.4421 620.88 13.719C620.919 12.3918 621.015 11.0481 621.27 9.74825C623.083 0.485047 631.293 -2.4938 638.454 3.69077C644.668 9.05647 649.32 15.8601 654.42 22.2183C663.384 33.3923 672.126 44.7448 680.94 56.0386C681.654 56.9536 682.211 57.9919 682.652 58.6794C685.795 57.5366 686.069 55.3929 686.802 53.6276C693.728 36.946 704.739 24.1519 721.582 16.8444C723.592 15.9724 725.591 14.7067 727.594 16.5462C729.707 18.4859 727.732 20.1858 726.975 21.8938C722.762 31.4064 716.001 39.3554 710.758 48.2383C708.633 51.8378 706.703 55.5158 705.55 59.552C704.402 63.573 705.492 66.5768 709.191 68.8955C714.407 72.1646 719.432 75.7427 724.475 79.279C727.495 81.3963 730.589 83.2017 734.202 84.2308C739.456 85.7274 743.063 89.0954 743.296 94.8314C743.746 105.886 749.502 111.675 760.211 113.678C768.377 115.206 776.39 117.564 784.451 119.632C793.065 121.841 794.732 124.75 792.141 133.39C790.254 139.682 790.014 146.763 784.373 151.399C774.382 159.61 763.454 164.859 749.964 162.502C743.908 161.443 737.772 160.64 731.639 160.267C720.023 159.561 711.939 165.298 708.264 176.476C705.121 186.039 704.252 196.019 703.393 205.949C701.574 226.972 695.817 246.8 685.964 265.844Z" fill="#1E46A4"/>
</svg>
