<svg width="1111" height="1080" viewBox="0 0 1111 1080" fill="none" xmlns="http://www.w3.org/2000/svg">
<path d="M1111 540C1111 838.234 869.458 1080 571.5 1080C273.543 1080 32 838.234 32 540C32 241.766 273.543 0 571.5 0C869.458 0 1111 241.766 1111 540Z" fill="#1E46A4"/>
<path d="M716.964 485.844C712.712 493.635 708.402 500.974 703.109 507.639C700.749 510.611 700.848 512.904 702.818 516.08C714.583 535.042 726.872 553.735 736.125 574.115C742.607 588.392 748.322 603.009 748.08 619.091C747.997 624.569 746.885 629.991 746.988 635.52C747.131 643.133 749.177 649.971 754.191 655.785C758.667 660.975 761.11 667.13 762.699 673.663C764.218 679.912 761.23 683.594 754.685 683.78C742.538 684.125 729.492 674.715 725.734 662.907C723.587 656.161 722.676 649.154 723.039 642.186C724.443 615.199 712.651 595.073 691.469 579.533C686.234 575.693 681.118 571.669 676.167 567.471C673.736 565.41 672.169 565.5 669.893 567.721C660.316 577.064 654.258 588.224 651.154 601.23C643.273 634.248 627.327 662.241 599.135 682.174C576.339 698.292 550.641 706.948 523.097 710.283C514.366 711.34 514.388 710.992 514.277 719.74C513.894 749.901 514.79 780.048 515.212 810.2C515.28 815.068 517.246 817.976 521.754 819.594C546.152 828.352 571.121 832.834 597.184 831.11C607.845 830.404 618.354 828.776 628.881 827.346C649.134 824.595 665.81 831.968 680.84 844.419C685.931 848.637 684.552 853.995 677.878 855.923C669.185 858.435 660.125 858.959 651.14 858.809C630.988 858.472 610.844 857.724 590.696 857.15C555.23 856.138 519.764 855.131 484.298 854.121C483.299 854.092 482.3 854.015 481.301 854.007C469.507 853.91 468.56 853.351 466.678 841.894C463.969 825.398 466.476 809.387 472.021 793.758C480.907 768.712 476.61 744.955 465.083 721.862C463.054 717.799 460.085 716.044 455.52 716.167C439.035 716.611 422.545 716.932 406.055 717.128C402.701 717.168 401.418 718.71 400.648 721.689C397.819 732.636 396.102 743.872 391.919 754.47C383.588 775.575 374.133 796.153 362.618 815.707C349.553 837.892 329.81 851.337 305.051 857.149C283.787 862.141 262.019 863.777 240.257 865.44C210.474 867.717 180.668 867.518 150.86 867.197C114.18 866.801 77.7325 863.39 41.4983 857.695C38.5483 857.231 35.5964 856.774 32.6614 856.228C32.2938 856.159 32.0246 855.562 31.7722 855.28C31.8539 854.066 32.6435 853.809 33.4935 853.732C47.5827 852.471 61.6528 850.865 75.7684 850.062C96.0572 848.907 116.383 848.352 136.71 848.979C151.52 849.436 166.332 850.81 181.125 850.599C215.772 850.104 249.903 846.055 282.122 832.116C300.923 823.982 317.24 812.745 326.064 793.385C331.489 781.482 333.395 768.531 335.696 755.757C340.698 727.989 341.829 699.927 343.135 671.786C345.341 624.248 356.663 578.964 381.885 537.936C400.855 507.081 427.297 484.698 460.024 469.436C486.44 457.117 514.026 450.52 543.263 452.014C550.384 452.378 557.506 453.502 564.533 454.792C578.047 457.272 590.87 454.177 603.143 449.429C633.344 437.745 655.479 417.03 669.691 387.827C673.572 379.852 674.383 371.709 673.253 363.059C671.413 348.972 670.893 334.894 674.627 320.949C675.671 317.053 676.995 313.291 679.004 309.83C680.537 307.19 680.01 305.385 677.942 303.263C659.091 283.915 651.11 260.442 651.88 233.719C651.919 232.392 652.015 231.048 652.27 229.748C654.083 220.485 662.293 217.506 669.454 223.691C675.668 229.056 680.32 235.86 685.42 242.218C694.384 253.392 703.126 264.745 711.94 276.039C712.654 276.954 713.211 277.992 713.652 278.679C716.795 277.537 717.069 275.393 717.802 273.628C724.728 256.946 735.739 244.152 752.582 236.844C754.592 235.972 756.591 234.707 758.594 236.546C760.707 238.486 758.732 240.186 757.975 241.894C753.762 251.406 747.001 259.355 741.758 268.238C739.633 271.838 737.703 275.516 736.55 279.552C735.402 283.573 736.492 286.577 740.191 288.895C745.407 292.165 750.432 295.743 755.475 299.279C758.495 301.396 761.589 303.202 765.202 304.231C770.456 305.727 774.063 309.095 774.296 314.831C774.746 325.886 780.502 331.675 791.211 333.678C799.377 335.206 807.39 337.564 815.451 339.632C824.065 341.841 825.732 344.75 823.141 353.39C821.254 359.682 821.014 366.763 815.373 371.399C805.382 379.61 794.454 384.859 780.964 382.502C774.908 381.443 768.772 380.64 762.639 380.267C751.023 379.561 742.939 385.298 739.264 396.476C736.121 406.039 735.252 416.019 734.393 425.949C732.574 446.972 726.817 466.8 716.964 485.844Z" fill="white"/>
<path d="M574.477 824.653C558.344 823.883 543.445 820.139 529.309 813.291C525.212 811.307 522.441 808.62 522.804 803.702C524.216 784.566 522.32 765.42 522.991 746.282C523.225 739.624 523.58 732.968 523.659 726.308C523.709 722.054 525.816 719.28 529.488 717.848C533.035 716.464 536.824 715.714 540.469 714.562C543.653 713.556 544.882 714.991 544.84 717.929C544.777 722.257 544.454 726.582 544.441 730.909C544.38 751.905 544.443 772.902 544.324 793.898C544.295 798.904 546.269 801.958 551.066 803.659C574.098 811.824 597.729 814.324 621.937 811.366C635.324 809.73 648.662 807.715 662.203 807.738C679.64 807.766 694.118 814.952 706.954 826.076C709.594 828.364 712.786 831.638 711.522 834.881C710.127 838.458 705.53 838.45 701.814 838.273C695.085 837.954 688.603 836.496 682.599 833.374C658.081 820.623 632.09 818.8 605.279 822.765C595.224 824.252 585.13 825.332 574.477 824.653Z" fill="white"/>
<path d="M699.609 602.723C700.73 612.228 701.702 621.312 701.315 630.472C701.042 636.92 703.497 642.111 708.434 646.193C716.234 652.644 718.287 660.889 715.794 670.425C714.094 676.926 709.605 678.98 703.621 675.84C690.782 669.102 683.788 658.335 682.98 643.9C681.989 626.22 676.464 610.368 665.019 596.758C662.291 593.514 661.967 590.216 663.885 586.642C665.771 583.126 667.756 579.658 669.842 576.258C672.234 572.358 675.674 572.341 679.424 574.018C691.672 579.496 697.772 589.344 699.609 602.723Z" fill="white"/>
</svg>
