<svg width="1440" height="449" viewBox="0 0 1440 449" fill="none" xmlns="http://www.w3.org/2000/svg">
<path d="M-33 212.857L15.8696 242.048C28.9652 249.87 43.9344 254 59.1883 254H65.4657C84.1508 254 102.05 246.48 115.128 233.135V233.135C127.866 220.137 135 202.664 135 184.466V180.967C135 164.466 128.943 148.538 117.979 136.206V136.206C103.376 119.781 81.6794 111.512 59.8489 114.052L40.3357 116.322C31.0599 117.401 21.9693 119.712 13.304 123.192L-33 141.792" stroke="#709CF3" stroke-width="47"/>
<path d="M737 14.7892L738.805 20.3354C747.369 46.6578 761.991 70.6033 781.494 90.2468V90.2468L810.662 112.846L828.924 125.383C842.734 134.864 857.652 142.623 873.344 148.486L889.85 154.654C909.292 161.918 930.173 164.497 950.798 162.179L954.751 161.735C974.067 159.564 992.532 152.59 1008.46 141.449L1012.48 138.64C1017.33 135.245 1021.76 131.288 1025.69 126.851L1027.65 124.638C1034.49 116.895 1039.34 107.591 1041.76 97.5402V97.5402C1042.92 92.6949 1043.51 87.7288 1043.51 82.7452V80.4926C1043.51 67.2727 1040.32 54.2477 1034.22 42.5217L1031.57 37.4265C1023.97 22.8364 1011.32 11.5119 995.984 5.57004V5.57004C988.187 2.54951 979.898 1 971.536 1H967.772C959.314 1 950.901 2.22193 942.792 4.62792L930.291 8.33757C916.075 12.5558 903.308 20.6356 893.41 31.6779V31.6779C887.073 38.7481 882.043 46.8882 878.554 55.7185L875.201 64.2063C871.102 74.5789 868.998 85.6316 868.998 96.7845V96.7845C868.998 110.619 872.236 124.262 878.452 136.622L887.655 154.919C892.67 164.889 898.745 174.29 905.774 182.959V182.959C914.83 194.129 925.393 203.987 937.16 212.252L947.557 219.554C964.004 231.106 981.813 240.586 1000.58 247.779L1020.78 255.519C1047.31 265.689 1076.04 268.751 1104.12 264.403L1110.79 263.369C1120.61 261.849 1130.17 259.036 1139.25 255.003L1149.08 250.63C1153.49 248.672 1157.55 246.023 1161.13 242.783L1164.39 239.818C1171.79 233.112 1176 223.543 1176 213.562V213.562C1176 204.739 1172.68 196.193 1166.7 189.705V189.705C1163.06 185.759 1158.57 182.699 1153.57 180.76L1148.29 178.715C1133.73 173.077 1117.55 173.384 1103.22 179.57L1095.36 182.964C1071.69 193.179 1056.37 216.486 1056.37 242.262V242.262C1056.37 256.923 1061.35 271.148 1070.51 282.598L1084.55 300.149V300.149C1111.79 327.36 1142.77 351.187 1176 370.627V370.627L1214.68 389.263C1254.97 408.677 1297.6 422.812 1341.51 431.318L1370.29 436.892L1440 448" stroke="#709CF3" stroke-opacity="0.4" stroke-width="2"/>
</svg>
