<svg width="1440" height="1353" viewBox="0 0 1440 1353" fill="none" xmlns="http://www.w3.org/2000/svg">
<path d="M-58 1231.73L-12.072 1220.94C1.91549 1217.66 16.2356 1216 30.6038 1216H38.7408C55.1568 1216 71.4459 1218.88 86.8695 1224.5L98.984 1228.91C104.112 1230.78 108.933 1233.41 113.285 1236.7L125.662 1246.07C131.544 1250.52 135 1257.47 135 1264.85V1264.85C135 1271.81 131.919 1278.42 126.585 1282.89L113.814 1293.61C109.113 1297.55 103.828 1300.74 98.1488 1303.07L87.9313 1307.25C80.2977 1310.37 72.3844 1312.76 64.2983 1314.38L51.9132 1316.87C34.9093 1320.28 17.6088 1322 0.265753 1322H-12.3548H-58" stroke="#709CF3" stroke-opacity="0.4" stroke-width="62"/>
<path d="M-58 607.708L-15.2008 591.975C-2.64971 587.361 10.6175 585 23.9898 585H26.6544C44.6459 585 62.3269 589.688 77.9547 598.603L82.4399 601.161C90.0325 605.492 96.803 611.126 102.441 617.805L109.01 625.587C116.107 633.994 120 644.641 120 655.643V655.643C120 665.842 116.654 675.759 110.474 683.873L102.894 693.826C96.9561 701.624 89.6942 708.317 81.4398 713.601L77.9936 715.807C70.0365 720.901 61.4385 724.916 52.4249 727.748L44.5148 730.233C28.1269 735.381 11.0498 738 -6.12764 738H-15.9023H-58" stroke="#709CF3" stroke-width="62"/>
<path d="M1471.5 212L1463.97 206.432C1439.44 188.301 1408.47 181.194 1378.48 186.815L1374.28 187.604C1365.81 189.192 1357.65 192.094 1350.08 196.205L1347.38 197.669C1330.45 206.868 1317.71 222.237 1311.81 240.583L1310.57 244.441C1305.7 259.606 1306.62 276.04 1313.16 290.567V290.567C1318.27 301.943 1326.59 311.588 1337.09 318.328L1341.37 321.078C1354.51 329.515 1369.8 334 1385.42 334H1391C1403.23 334 1415.36 331.768 1426.79 327.413L1451.5 318L1471.5 308" stroke="#709CF3" stroke-opacity="0.4" stroke-width="47"/>
<path d="M1484 967.295L1478.52 964.398C1444.8 946.578 1406.35 939.724 1368.55 944.791L1359 946.072C1350.97 947.148 1343.09 949.175 1335.54 952.108L1318.53 958.715C1304.37 964.213 1292.94 975.059 1286.71 988.911L1285.1 992.496C1278.17 1007.92 1279.41 1025.79 1288.42 1040.11V1040.11C1293.65 1048.41 1301.18 1055.01 1310.1 1059.11L1325.54 1066.19C1339.62 1072.65 1354.93 1076 1370.42 1076H1384.02C1399.09 1076 1414.1 1073.99 1428.64 1070.03L1459.07 1061.74L1484 1052.83" stroke="#709CF3" stroke-opacity="0.4" stroke-width="47"/>
<path d="M1442 50.5C1413.01 111.554 1315.34 131.321 1267.28 135.902C1256.18 136.96 1245.06 135.367 1234.37 132.161L1217.7 127.159C1197.37 121.062 1180.99 105.954 1173.26 86.1923L1172.15 83.3578C1166.89 69.8955 1166.6 54.9978 1171.34 41.3413L1174.05 33.5262C1180.9 13.7563 1199.53 0.5 1220.46 0.5V0.5C1229 0.5 1237.4 2.73078 1244.83 6.97182L1249.41 9.59007C1273.67 23.454 1287.17 50.5837 1283.61 78.2986L1283 83L1278.45 107.28C1276.49 117.705 1273.04 127.791 1268.19 137.223V137.223C1261.14 150.921 1251.29 162.98 1239.27 172.617L1219.23 188.689C1211.11 195.202 1202.18 200.63 1192.66 204.838L1164 217.5L1114 234.5L1047 248.5L985.362 258.845C978.799 259.946 972.155 260.5 965.5 260.5H885H847.123C819.497 260.5 792.987 249.596 773.356 230.159V230.159C760.346 217.278 750.935 201.214 746.061 183.567L743.331 173.68C740.457 163.274 739 152.528 739 141.733V128.121C739 113.172 741.793 98.3545 747.236 84.4315L753.563 68.245C758.118 56.5923 765.457 46.2317 774.938 38.0677L776.221 36.9628C789.304 25.6965 805.996 19.5 823.262 19.5V19.5C841.416 19.5 858.901 26.3491 872.226 38.679L885 50.5L886.174 51.6741C899.531 65.0314 909.506 81.3853 915.269 99.3752V99.3752C922.894 123.182 922.805 148.789 915.014 172.542L910.416 186.562C907.812 194.499 904.387 202.143 900.196 209.368L887.071 231.998C880.73 242.931 872.702 252.793 863.283 261.221L849 274L820.5 296.5L777.5 332.5L722.5 368L670 394.5L636.5 411L602.731 424.2C588.703 429.684 575.832 437.761 564.791 448.007L524.106 485.765C516.073 493.22 509.1 501.74 503.379 511.087L491.5 530.5L471.799 563.067C468.604 568.348 465.822 573.867 463.477 579.576L449.503 613.587C443.558 628.056 440.5 643.548 440.5 659.19V676.178C440.5 693.52 444.259 710.656 451.517 726.405L455.657 735.389C463.125 751.592 474.112 765.927 487.818 777.348L499.684 787.237C515.396 800.33 535.2 807.5 555.652 807.5V807.5C581.253 807.5 605.602 796.239 622.212 776.757V776.757C631.58 765.771 638.105 752.617 641.172 738.509L643.166 729.336C647.006 711.674 646.806 693.372 642.581 675.798L642.105 673.817C638.405 658.425 631.696 643.916 622.364 631.128L606.026 608.739C599.375 599.625 591.473 591.495 582.551 584.588L549.5 559L467 497L437.501 479.814C419.162 469.129 398.317 463.5 377.093 463.5H367.035C350.846 463.5 334.824 466.776 319.934 473.13L264 497L219.193 518.598C202.94 526.432 185.13 530.5 167.088 530.5H128.635C107.809 530.5 87.5788 523.55 71.1501 510.751V510.751C59.5471 501.711 50.2394 490.062 43.9829 476.751L30 447L-1 375.5" stroke="#709CF3"/>
</svg>
