<svg width="1440" height="1192" viewBox="0 0 1440 1192" fill="none" xmlns="http://www.w3.org/2000/svg">
<path d="M-58 1070.73L-12.072 1059.94C1.91549 1056.66 16.2356 1055 30.6038 1055H38.7408C55.1568 1055 71.4459 1057.88 86.8695 1063.5L98.984 1067.91C104.112 1069.78 108.933 1072.41 113.285 1075.7L125.662 1085.07C131.544 1089.52 135 1096.47 135 1103.85V1103.85C135 1110.81 131.919 1117.42 126.585 1121.89L113.814 1132.61C109.113 1136.55 103.828 1139.74 98.1488 1142.07L87.9313 1146.25C80.2977 1149.37 72.3844 1151.76 64.2983 1153.38L51.9132 1155.87C34.9093 1159.28 17.6088 1161 0.265753 1161H-12.3548H-58" stroke="#709CF3" stroke-opacity="0.4" stroke-width="62"/>
<path d="M-58 446.708L-15.2008 430.975C-2.64971 426.361 10.6175 424 23.9898 424H26.6544C44.6459 424 62.3269 428.688 77.9547 437.603L82.4399 440.161C90.0325 444.492 96.803 450.126 102.441 456.805L109.01 464.587C116.107 472.994 120 483.641 120 494.643V494.643C120 504.842 116.654 514.759 110.474 522.873L102.894 532.826C96.9561 540.624 89.6942 547.317 81.4398 552.601L77.9936 554.807C70.0365 559.901 61.4385 563.916 52.4249 566.748L44.5148 569.233C28.1269 574.381 11.0498 577 -6.12764 577H-15.9023H-58" stroke="#709CF3" stroke-width="62"/>
<path d="M1471.5 51L1463.97 45.4324C1439.44 27.3007 1408.47 20.1937 1378.48 25.8153L1374.28 26.6043C1365.81 28.1916 1357.65 31.0937 1350.08 35.2053L1347.38 36.6689C1330.45 45.8675 1317.71 61.2367 1311.81 79.5831L1310.57 83.4408C1305.7 98.6062 1306.62 115.04 1313.16 129.567V129.567C1318.27 140.943 1326.59 150.588 1337.09 157.328L1341.37 160.078C1354.51 168.515 1369.8 173 1385.42 173H1391C1403.23 173 1415.36 170.768 1426.79 166.413L1451.5 157L1471.5 147" stroke="#709CF3" stroke-opacity="0.4" stroke-width="47"/>
<path d="M1484 806.295L1478.52 803.398C1444.8 785.578 1406.35 778.724 1368.55 783.791L1359 785.072C1350.97 786.148 1343.09 788.175 1335.54 791.108L1318.53 797.715C1304.37 803.213 1292.94 814.059 1286.71 827.911L1285.1 831.496C1278.17 846.922 1279.41 864.795 1288.42 879.108V879.108C1293.65 887.411 1301.18 894.013 1310.1 898.105L1325.54 905.194C1339.62 911.655 1354.93 915 1370.42 915H1384.02C1399.09 915 1414.1 912.993 1428.64 909.032L1459.07 900.744L1484 891.833" stroke="#709CF3" stroke-opacity="0.4" stroke-width="47"/>
</svg>
